<?xml version="1.0" encoding="UTF-8" standalone="no"?><svg xmlns="http://www.w3.org/2000/svg" xmlns:xlink="http://www.w3.org/1999/xlink" contentScriptType="application/ecmascript" contentStyleType="text/css" height="460px" preserveAspectRatio="none" style="width:900px;height:460px;" version="1.1" viewBox="0 0 900 460" width="900px" zoomAndPan="magnify"><defs><filter height="300%" id="f1uzc6cxg0955d" width="300%" x="-1" y="-1"><feGaussianBlur result="blurOut" stdDeviation="2.0"/><feColorMatrix in="blurOut" result="blurOut2" type="matrix" values="0 0 0 0 0 0 0 0 0 0 0 0 0 0 0 0 0 0 .4 0"/><feOffset dx="4.0" dy="4.0" in="blurOut2" result="blurOut3"/><feBlend in="SourceGraphic" in2="blurOut3" mode="normal"/></filter></defs><g><line style="stroke: #A80036; stroke-width: 1.0; stroke-dasharray: 5.0,5.0;" x1="47" x2="47" y1="41.0679" y2="417.1281"/><line style="stroke: #A80036; stroke-width: 1.0; stroke-dasharray: 5.0,5.0;" x1="378" x2="378" y1="41.0679" y2="417.1281"/><line style="stroke: #A80036; stroke-width: 1.0; stroke-dasharray: 5.0,5.0;" x1="691.5" x2="691.5" y1="41.0679" y2="417.1281"/><line style="stroke: #A80036; stroke-width: 1.0; stroke-dasharray: 5.0,5.0;" x1="769.5" x2="769.5" y1="41.0679" y2="417.1281"/><line style="stroke: #A80036; stroke-width: 1.0; stroke-dasharray: 5.0,5.0;" x1="853.5" x2="853.5" y1="41.0679" y2="417.1281"/><rect fill="#FEFECE" filter="url(#f1uzc6cxg0955d)" height="33.0679" style="stroke: #A80036; stroke-width: 1.5;" width="74" x="8" y="3"/><text fill="#000000" font-family="sans-serif" font-size="14" lengthAdjust="spacingAndGlyphs" textLength="60" x="15" y="24.9659">Validator</text><rect fill="#FEFECE" filter="url(#f1uzc6cxg0955d)" height="33.0679" style="stroke: #A80036; stroke-width: 1.5;" width="74" x="8" y="416.1281"/><text fill="#000000" font-family="sans-serif" font-size="14" lengthAdjust="spacingAndGlyphs" textLength="60" x="15" y="438.094">Validator</text><rect fill="#FEFECE" filter="url(#f1uzc6cxg0955d)" height="33.0679" style="stroke: #A80036; stroke-width: 1.5;" width="54" x="349" y="3"/><text fill="#000000" font-family="sans-serif" font-size="14" lengthAdjust="spacingAndGlyphs" textLength="40" x="356" y="24.9659">Miner</text><rect fill="#FEFECE" filter="url(#f1uzc6cxg0955d)" height="33.0679" style="stroke: #A80036; stroke-width: 1.5;" width="54" x="349" y="416.1281"/><text fill="#000000" font-family="sans-serif" font-size="14" lengthAdjust="spacingAndGlyphs" textLength="40" x="356" y="438.094">Miner</text><rect fill="#FEFECE" filter="url(#f1uzc6cxg0955d)" height="33.0679" style="stroke: #A80036; stroke-width: 1.5;" width="61" x="659.5" y="3"/><text fill="#000000" font-family="sans-serif" font-size="14" lengthAdjust="spacingAndGlyphs" textLength="47" x="666.5" y="24.9659">GitHub</text><rect fill="#FEFECE" filter="url(#f1uzc6cxg0955d)" height="33.0679" style="stroke: #A80036; stroke-width: 1.5;" width="61" x="659.5" y="416.1281"/><text fill="#000000" font-family="sans-serif" font-size="14" lengthAdjust="spacingAndGlyphs" textLength="47" x="666.5" y="438.094">GitHub</text><rect fill="#FEFECE" filter="url(#f1uzc6cxg0955d)" height="33.0679" style="stroke: #A80036; stroke-width: 1.5;" width="66" x="734.5" y="3"/><text fill="#000000" font-family="sans-serif" font-size="14" lengthAdjust="spacingAndGlyphs" textLength="52" x="741.5" y="24.9659">Storage</text><rect fill="#FEFECE" filter="url(#f1uzc6cxg0955d)" height="33.0679" style="stroke: #A80036; stroke-width: 1.5;" width="66" x="734.5" y="416.1281"/><text fill="#000000" font-family="sans-serif" font-size="14" lengthAdjust="spacingAndGlyphs" textLength="52" x="741.5" y="438.094">Storage</text><rect fill="#FEFECE" filter="url(#f1uzc6cxg0955d)" height="33.0679" style="stroke: #A80036; stroke-width: 1.5;" width="75" x="814.5" y="3"/><text fill="#000000" font-family="sans-serif" font-size="14" lengthAdjust="spacingAndGlyphs" textLength="61" x="821.5" y="24.9659">Bittensor</text><rect fill="#FEFECE" filter="url(#f1uzc6cxg0955d)" height="33.0679" style="stroke: #A80036; stroke-width: 1.5;" width="75" x="814.5" y="416.1281"/><text fill="#000000" font-family="sans-serif" font-size="14" lengthAdjust="spacingAndGlyphs" textLength="61" x="821.5" y="438.094">Bittensor</text><line style="stroke: #A80036; stroke-width: 1.0;" x1="47" x2="89" y1="74.7739" y2="74.7739"/><line style="stroke: #A80036; stroke-width: 1.0;" x1="89" x2="89" y1="74.7739" y2="87.7739"/><line style="stroke: #A80036; stroke-width: 1.0;" x1="48" x2="89" y1="87.7739" y2="87.7739"/><polygon fill="#A80036" points="58,83.7739,48,87.7739,58,91.7739,54,87.7739" style="stroke: #A80036; stroke-width: 1.0;"/><text fill="#000000" font-family="sans-serif" font-size="13" lengthAdjust="spacingAndGlyphs" textLength="163" x="54" y="68.9649">Generate Validator key-pair</text><polygon fill="#A80036" points="680,115.4799,690,119.4799,680,123.4799,684,119.4799" style="stroke: #A80036; stroke-width: 1.0;"/><line style="stroke: #A80036; stroke-width: 1.0;" x1="47" x2="686" y1="119.4799" y2="119.4799"/><text fill="#000000" font-family="sans-serif" font-size="13" lengthAdjust="spacingAndGlyphs" textLength="221" x="54" y="113.6709">Publish public key along with HotKey</text><polygon fill="#A80036" points="389,147.186,379,151.186,389,155.186,385,151.186" style="stroke: #A80036; stroke-width: 1.0;"/><line style="stroke: #A80036; stroke-width: 1.0;" x1="383" x2="691" y1="151.186" y2="151.186"/><text fill="#000000" font-family="sans-serif" font-size="13" lengthAdjust="spacingAndGlyphs" textLength="116" x="395" y="145.377">Fetch Validator info</text><line style="stroke: #A80036; stroke-width: 1.0;" x1="378" x2="420" y1="182.892" y2="182.892"/><line style="stroke: #A80036; stroke-width: 1.0;" x1="420" x2="420" y1="182.892" y2="195.892"/><line style="stroke: #A80036; stroke-width: 1.0;" x1="379" x2="420" y1="195.892" y2="195.892"/><polygon fill="#A80036" points="389,191.892,379,195.892,389,199.892,385,195.892" style="stroke: #A80036; stroke-width: 1.0;"/><text fill="#000000" font-family="sans-serif" font-size="13" lengthAdjust="spacingAndGlyphs" textLength="300" x="385" y="177.083">Encrypt Miner IP/Domain with Validator public key</text><polygon fill="#A80036" points="757.5,223.598,767.5,227.598,757.5,231.598,761.5,227.598" style="stroke: #A80036; stroke-width: 1.0;"/><line style="stroke: #A80036; stroke-width: 1.0;" x1="378" x2="763.5" y1="227.598" y2="227.598"/><text fill="#000000" font-family="sans-serif" font-size="13" lengthAdjust="spacingAndGlyphs" textLength="347" x="385" y="221.789">Add/update file with encrypted IPs/Domains for Validators</text><polygon fill="#A80036" points="842,255.304,852,259.304,842,263.304,846,259.304" style="stroke: #A80036; stroke-width: 1.0;"/><line style="stroke: #A80036; stroke-width: 1.0;" x1="378" x2="848" y1="259.304" y2="259.304"/><text fill="#000000" font-family="sans-serif" font-size="13" lengthAdjust="spacingAndGlyphs" textLength="115" x="385" y="253.495">Publish file location</text><polygon fill="#A80036" points="58,287.01,48,291.01,58,295.01,54,291.01" style="stroke: #A80036; stroke-width: 1.0;"/><line style="stroke: #A80036; stroke-width: 1.0;" x1="52" x2="853" y1="291.01" y2="291.01"/><text fill="#000000" font-family="sans-serif" font-size="13" lengthAdjust="spacingAndGlyphs" textLength="104" x="64" y="285.201">Fetch file location</text><polygon fill="#A80036" points="58,318.716,48,322.716,58,326.716,54,322.716" style="stroke: #A80036; stroke-width: 1.0;"/><line style="stroke: #A80036; stroke-width: 1.0;" x1="52" x2="768.5" y1="322.716" y2="322.716"/><text fill="#000000" font-family="sans-serif" font-size="13" lengthAdjust="spacingAndGlyphs" textLength="91" x="64" y="316.907">Fetch Miner file</text><line style="stroke: #A80036; stroke-width: 1.0;" x1="47" x2="89" y1="354.4221" y2="354.4221"/><line style="stroke: #A80036; stroke-width: 1.0;" x1="89" x2="89" y1="354.4221" y2="367.4221"/><line style="stroke: #A80036; stroke-width: 1.0;" x1="48" x2="89" y1="367.4221" y2="367.4221"/><polygon fill="#A80036" points="58,363.4221,48,367.4221,58,371.4221,54,367.4221" style="stroke: #A80036; stroke-width: 1.0;"/><text fill="#000000" font-family="sans-serif" font-size="13" lengthAdjust="spacingAndGlyphs" textLength="317" x="54" y="348.6131">Decrypt Miner file entry encrypted for given Validator</text><polygon fill="#A80036" points="366,395.1281,376,399.1281,366,403.1281,370,399.1281" style="stroke: #A80036; stroke-width: 1.0;"/><line style="stroke: #A80036; stroke-width: 1.0;" x1="47" x2="372" y1="399.1281" y2="399.1281"/><text fill="#000000" font-family="sans-serif" font-size="13" lengthAdjust="spacingAndGlyphs" textLength="284" x="54" y="393.3191">Send request using decrypted Miner IP/Domain</text><!--MD5=[ff12af85b5c8827b947f8130cb369bd1]
@startuml ./assets/diagrams/CommunicationFlow
participant Validator
participant Miner
participant GitHub
participant Storage
participant Bittensor
Validator -> Validator: Generate Validator key-pair
Validator -> GitHub: Publish public key along with HotKey
GitHub -> Miner: Fetch Validator info
Miner -> Miner: Encrypt Miner IP/Domain with Validator public key
Miner -> Storage: Add/update file with encrypted IPs/Domains for Validators
Miner -> Bittensor: Publish file location
Bittensor -> Validator: Fetch file location
Storage -> Validator: Fetch Miner file
Validator -> Validator: Decrypt Miner file entry encrypted for given Validator
Validator -> Miner: Send request using decrypted Miner IP/Domain
@enduml

PlantUML version 1.2020.02(Sun Mar 01 11:22:07 CET 2020)
(GPL source distribution)
Java Runtime: OpenJDK Runtime Environment
JVM: OpenJDK 64-Bit Server VM
Java Version: 11.0.24+8-post-Ubuntu-1ubuntu322.04
Operating System: Linux
Default Encoding: UTF-8
Language: en
Country: US
--></g></svg>