<?xml version="1.0" encoding="UTF-8" standalone="no"?><svg xmlns="http://www.w3.org/2000/svg" xmlns:xlink="http://www.w3.org/1999/xlink" contentScriptType="application/ecmascript" contentStyleType="text/css" height="491px" preserveAspectRatio="none" style="width:1054px;height:491px;" version="1.1" viewBox="0 0 1054 491" width="1054px" zoomAndPan="magnify"><defs><filter height="300%" id="f1khgb05oplbaj" width="300%" x="-1" y="-1"><feGaussianBlur result="blurOut" stdDeviation="2.0"/><feColorMatrix in="blurOut" result="blurOut2" type="matrix" values="0 0 0 0 0 0 0 0 0 0 0 0 0 0 0 0 0 0 .4 0"/><feOffset dx="4.0" dy="4.0" in="blurOut2" result="blurOut3"/><feBlend in="SourceGraphic" in2="blurOut3" mode="normal"/></filter></defs><g><line style="stroke: #A80036; stroke-width: 1.0; stroke-dasharray: 5.0,5.0;" x1="47" x2="47" y1="41.0679" y2="448.8341"/><line style="stroke: #A80036; stroke-width: 1.0; stroke-dasharray: 5.0,5.0;" x1="378" x2="378" y1="41.0679" y2="448.8341"/><line style="stroke: #A80036; stroke-width: 1.0; stroke-dasharray: 5.0,5.0;" x1="701.5" x2="701.5" y1="41.0679" y2="448.8341"/><line style="stroke: #A80036; stroke-width: 1.0; stroke-dasharray: 5.0,5.0;" x1="811.5" x2="811.5" y1="41.0679" y2="448.8341"/><line style="stroke: #A80036; stroke-width: 1.0; stroke-dasharray: 5.0,5.0;" x1="923.5" x2="923.5" y1="41.0679" y2="448.8341"/><line style="stroke: #A80036; stroke-width: 1.0; stroke-dasharray: 5.0,5.0;" x1="1007.5" x2="1007.5" y1="41.0679" y2="448.8341"/><rect fill="#FEFECE" filter="url(#f1khgb05oplbaj)" height="33.0679" style="stroke: #A80036; stroke-width: 1.5;" width="74" x="8" y="3"/><text fill="#000000" font-family="sans-serif" font-size="14" lengthAdjust="spacingAndGlyphs" textLength="60" x="15" y="24.9659">Validator</text><rect fill="#FEFECE" filter="url(#f1khgb05oplbaj)" height="33.0679" style="stroke: #A80036; stroke-width: 1.5;" width="74" x="8" y="447.8341"/><text fill="#000000" font-family="sans-serif" font-size="14" lengthAdjust="spacingAndGlyphs" textLength="60" x="15" y="469.8">Validator</text><rect fill="#FEFECE" filter="url(#f1khgb05oplbaj)" height="33.0679" style="stroke: #A80036; stroke-width: 1.5;" width="54" x="349" y="3"/><text fill="#000000" font-family="sans-serif" font-size="14" lengthAdjust="spacingAndGlyphs" textLength="40" x="356" y="24.9659">Miner</text><rect fill="#FEFECE" filter="url(#f1khgb05oplbaj)" height="33.0679" style="stroke: #A80036; stroke-width: 1.5;" width="54" x="349" y="447.8341"/><text fill="#000000" font-family="sans-serif" font-size="14" lengthAdjust="spacingAndGlyphs" textLength="40" x="356" y="469.8">Miner</text><rect fill="#FEFECE" filter="url(#f1khgb05oplbaj)" height="33.0679" style="stroke: #A80036; stroke-width: 1.5;" width="61" x="669.5" y="3"/><text fill="#000000" font-family="sans-serif" font-size="14" lengthAdjust="spacingAndGlyphs" textLength="47" x="676.5" y="24.9659">GitHub</text><rect fill="#FEFECE" filter="url(#f1khgb05oplbaj)" height="33.0679" style="stroke: #A80036; stroke-width: 1.5;" width="61" x="669.5" y="447.8341"/><text fill="#000000" font-family="sans-serif" font-size="14" lengthAdjust="spacingAndGlyphs" textLength="47" x="676.5" y="469.8">GitHub</text><rect fill="#FEFECE" filter="url(#f1khgb05oplbaj)" height="33.0679" style="stroke: #A80036; stroke-width: 1.5;" width="130" x="744.5" y="3"/><text fill="#000000" font-family="sans-serif" font-size="14" lengthAdjust="spacingAndGlyphs" textLength="116" x="751.5" y="24.9659">AddressManager</text><rect fill="#FEFECE" filter="url(#f1khgb05oplbaj)" height="33.0679" style="stroke: #A80036; stroke-width: 1.5;" width="130" x="744.5" y="447.8341"/><text fill="#000000" font-family="sans-serif" font-size="14" lengthAdjust="spacingAndGlyphs" textLength="116" x="751.5" y="469.8">AddressManager</text><rect fill="#FEFECE" filter="url(#f1khgb05oplbaj)" height="33.0679" style="stroke: #A80036; stroke-width: 1.5;" width="66" x="888.5" y="3"/><text fill="#000000" font-family="sans-serif" font-size="14" lengthAdjust="spacingAndGlyphs" textLength="52" x="895.5" y="24.9659">Storage</text><rect fill="#FEFECE" filter="url(#f1khgb05oplbaj)" height="33.0679" style="stroke: #A80036; stroke-width: 1.5;" width="66" x="888.5" y="447.8341"/><text fill="#000000" font-family="sans-serif" font-size="14" lengthAdjust="spacingAndGlyphs" textLength="52" x="895.5" y="469.8">Storage</text><rect fill="#FEFECE" filter="url(#f1khgb05oplbaj)" height="33.0679" style="stroke: #A80036; stroke-width: 1.5;" width="75" x="968.5" y="3"/><text fill="#000000" font-family="sans-serif" font-size="14" lengthAdjust="spacingAndGlyphs" textLength="61" x="975.5" y="24.9659">Bittensor</text><rect fill="#FEFECE" filter="url(#f1khgb05oplbaj)" height="33.0679" style="stroke: #A80036; stroke-width: 1.5;" width="75" x="968.5" y="447.8341"/><text fill="#000000" font-family="sans-serif" font-size="14" lengthAdjust="spacingAndGlyphs" textLength="61" x="975.5" y="469.8">Bittensor</text><line style="stroke: #A80036; stroke-width: 1.0;" x1="47" x2="89" y1="74.7739" y2="74.7739"/><line style="stroke: #A80036; stroke-width: 1.0;" x1="89" x2="89" y1="74.7739" y2="87.7739"/><line style="stroke: #A80036; stroke-width: 1.0;" x1="48" x2="89" y1="87.7739" y2="87.7739"/><polygon fill="#A80036" points="58,83.7739,48,87.7739,58,91.7739,54,87.7739" style="stroke: #A80036; stroke-width: 1.0;"/><text fill="#000000" font-family="sans-serif" font-size="13" lengthAdjust="spacingAndGlyphs" textLength="163" x="54" y="68.9649">Generate Validator key-pair</text><polygon fill="#A80036" points="690,115.4799,700,119.4799,690,123.4799,694,119.4799" style="stroke: #A80036; stroke-width: 1.0;"/><line style="stroke: #A80036; stroke-width: 1.0;" x1="47" x2="696" y1="119.4799" y2="119.4799"/><text fill="#000000" font-family="sans-serif" font-size="13" lengthAdjust="spacingAndGlyphs" textLength="221" x="54" y="113.6709">Publish public key along with HotKey</text><polygon fill="#A80036" points="389,147.186,379,151.186,389,155.186,385,151.186" style="stroke: #A80036; stroke-width: 1.0;"/><line style="stroke: #A80036; stroke-width: 1.0;" x1="383" x2="701" y1="151.186" y2="151.186"/><text fill="#000000" font-family="sans-serif" font-size="13" lengthAdjust="spacingAndGlyphs" textLength="144" x="395" y="145.377">Fetch new Validator info</text><polygon fill="#A80036" points="799.5,178.892,809.5,182.892,799.5,186.892,803.5,182.892" style="stroke: #A80036; stroke-width: 1.0;"/><line style="stroke: #A80036; stroke-width: 1.0;" x1="378" x2="805.5" y1="182.892" y2="182.892"/><text fill="#000000" font-family="sans-serif" font-size="13" lengthAdjust="spacingAndGlyphs" textLength="133" x="385" y="177.083">Generate new address</text><line style="stroke: #A80036; stroke-width: 1.0;" x1="378" x2="420" y1="214.598" y2="214.598"/><line style="stroke: #A80036; stroke-width: 1.0;" x1="420" x2="420" y1="214.598" y2="227.598"/><line style="stroke: #A80036; stroke-width: 1.0;" x1="379" x2="420" y1="227.598" y2="227.598"/><polygon fill="#A80036" points="389,223.598,379,227.598,389,231.598,385,227.598" style="stroke: #A80036; stroke-width: 1.0;"/><text fill="#000000" font-family="sans-serif" font-size="13" lengthAdjust="spacingAndGlyphs" textLength="310" x="385" y="208.789">Encrypt generated address with Validator public key</text><polygon fill="#A80036" points="911.5,255.304,921.5,259.304,911.5,263.304,915.5,259.304" style="stroke: #A80036; stroke-width: 1.0;"/><line style="stroke: #A80036; stroke-width: 1.0;" x1="378" x2="917.5" y1="259.304" y2="259.304"/><text fill="#000000" font-family="sans-serif" font-size="13" lengthAdjust="spacingAndGlyphs" textLength="304" x="385" y="253.495">Update file with encrypted addresses for Validators</text><polygon fill="#A80036" points="996,287.01,1006,291.01,996,295.01,1000,291.01" style="stroke: #A80036; stroke-width: 1.0;"/><line style="stroke: #A80036; stroke-width: 1.0;" x1="378" x2="1002" y1="291.01" y2="291.01"/><text fill="#000000" font-family="sans-serif" font-size="13" lengthAdjust="spacingAndGlyphs" textLength="115" x="385" y="285.201">Publish file location</text><polygon fill="#A80036" points="58,318.716,48,322.716,58,326.716,54,322.716" style="stroke: #A80036; stroke-width: 1.0;"/><line style="stroke: #A80036; stroke-width: 1.0;" x1="52" x2="1007" y1="322.716" y2="322.716"/><text fill="#000000" font-family="sans-serif" font-size="13" lengthAdjust="spacingAndGlyphs" textLength="104" x="64" y="316.907">Fetch file location</text><polygon fill="#A80036" points="58,350.4221,48,354.4221,58,358.4221,54,354.4221" style="stroke: #A80036; stroke-width: 1.0;"/><line style="stroke: #A80036; stroke-width: 1.0;" x1="52" x2="922.5" y1="354.4221" y2="354.4221"/><text fill="#000000" font-family="sans-serif" font-size="13" lengthAdjust="spacingAndGlyphs" textLength="91" x="64" y="348.6131">Fetch Miner file</text><line style="stroke: #A80036; stroke-width: 1.0;" x1="47" x2="89" y1="386.1281" y2="386.1281"/><line style="stroke: #A80036; stroke-width: 1.0;" x1="89" x2="89" y1="386.1281" y2="399.1281"/><line style="stroke: #A80036; stroke-width: 1.0;" x1="48" x2="89" y1="399.1281" y2="399.1281"/><polygon fill="#A80036" points="58,395.1281,48,399.1281,58,403.1281,54,399.1281" style="stroke: #A80036; stroke-width: 1.0;"/><text fill="#000000" font-family="sans-serif" font-size="13" lengthAdjust="spacingAndGlyphs" textLength="317" x="54" y="380.3191">Decrypt Miner file entry encrypted for given Validator</text><polygon fill="#A80036" points="366,426.8341,376,430.8341,366,434.8341,370,430.8341" style="stroke: #A80036; stroke-width: 1.0;"/><line style="stroke: #A80036; stroke-width: 1.0;" x1="47" x2="372" y1="430.8341" y2="430.8341"/><text fill="#000000" font-family="sans-serif" font-size="13" lengthAdjust="spacingAndGlyphs" textLength="267" x="54" y="425.0251">Send request using decrypted Miner address</text><!--MD5=[2d494e4f24f6fee6e0b528b514719219]
@startuml ./assets/diagrams/CommunicationFlow
participant Validator
participant Miner
participant GitHub
participant AddressManager
participant Storage
participant Bittensor
Validator -> Validator: Generate Validator key-pair
Validator -> GitHub: Publish public key along with HotKey
GitHub -> Miner: Fetch new Validator info
Miner -> AddressManager: Generate new address
Miner -> Miner: Encrypt generated address with Validator public key
Miner -> Storage: Update file with encrypted addresses for Validators
Miner -> Bittensor: Publish file location
Bittensor -> Validator: Fetch file location
Storage -> Validator: Fetch Miner file
Validator -> Validator: Decrypt Miner file entry encrypted for given Validator
Validator -> Miner: Send request using decrypted Miner address
@enduml

PlantUML version 1.2020.02(Sun Mar 01 11:22:07 CET 2020)
(GPL source distribution)
Java Runtime: OpenJDK Runtime Environment
JVM: OpenJDK 64-Bit Server VM
Java Version: 11.0.24+8-post-Ubuntu-1ubuntu322.04
Operating System: Linux
Default Encoding: UTF-8
Language: en
Country: US
--></g></svg>